SplineFontDB: 3.2
FontName: FBKINGDOM
FullName: FBKINGDOM
FamilyName: FBKINGDOM
Weight: Regular
Copyright: Copyright (c) 2024, kbinani
UComments: "2024-11-7: Created with FontForge (http://fontforge.org)"
Version: 001.000
ItalicAngle: 0
UnderlinePosition: -100
UnderlineWidth: 50
Ascent: 800
Descent: 200
InvalidEm: 0
LayerCount: 2
Layer: 0 0 "+gMyXYgAA" 1
Layer: 1 0 "+Uk2XYgAA" 0
XUID: [1021 716 1131550121 30788]
StyleMap: 0x0000
FSType: 0
OS2Version: 0
OS2_WeightWidthSlopeOnly: 0
OS2_UseTypoMetrics: 1
CreationTime: 1730956758
ModificationTime: 1731049978
PfmFamily: 17
TTFWeight: 400
TTFWidth: 5
LineGap: 90
VLineGap: 90
OS2TypoAscent: 0
OS2TypoAOffset: 1
OS2TypoDescent: 0
OS2TypoDOffset: 1
OS2TypoLinegap: 90
OS2WinAscent: 0
OS2WinAOffset: 1
OS2WinDescent: 0
OS2WinDOffset: 1
HheadAscent: 0
HheadAOffset: 1
HheadDescent: 0
HheadDOffset: 1
OS2Vendor: 'PfEd'
MarkAttachClasses: 1
DEI: 91125
LangName: 1033
Encoding: UnicodeBmp
UnicodeInterp: none
NameList: AGL For New Fonts
DisplaySize: -48
AntiAlias: 1
FitToEm: 0
WinInfo: 12236 38 14
BeginPrivate: 0
EndPrivate
TeXData: 1 0 0 346030 173015 115343 0 1048576 115343 783286 444596 497025 792723 393216 433062 380633 303038 157286 324010 404750 52429 2506097 1059062 262144
BeginChars: 65536 167

StartChar: uni3042
Encoding: 12354 12354 0
Width: 741
Flags: W
HStem: -175.615 21.168<163.423 590.121>
VStem: 590.121 21.168<-154.447 678.896>
LayerCount: 2
Fore
SplineSet
611.2890625 -175.615234375 m 1024
590.12109375 678.895507812 m 1
 163.422851562 -154.447265625 l 1
 590.12109375 -154.447265625 l 1
 590.12109375 678.895507812 l 1
611.2890625 756.881835938 m 1
 611.2890625 -175.615234375 l 1
 130 -175.615234375 l 1
 611.2890625 756.881835938 l 1
EndSplineSet
Validated: 524289
EndChar

StartChar: uni3044
Encoding: 12356 12356 1
Width: 561
Flags: HMW
LayerCount: 2
Fore
SplineSet
220.333984375 -175.615234375 m 1
 220.333984375 438.661132812 l 1
 341.640625 438.661132812 l 1
 341.640625 -175.615234375 l 1
 220.333984375 -175.615234375 l 1
280.986328125 781.931640625 m 0
 364.318359375 781.931640625 431.974609375 714.276367188 431.974609375 630.943359375 c 0
 431.973632812 547.612304688 364.318359375 479.95703125 280.986328125 479.95703125 c 0
 197.655273438 479.958007812 130.000976562 547.612304688 130 630.943359375 c 0
 130 714.275390625 197.654296875 781.930664062 280.986328125 781.931640625 c 0
280.986328125 752.25 m 0
 214.03515625 752.25 159.6796875 697.89453125 159.6796875 630.943359375 c 0
 159.6796875 563.993164062 214.03515625 509.63671875 280.986328125 509.63671875 c 0
 347.9375 509.63671875 402.29296875 563.993164062 402.29296875 630.943359375 c 0
 402.29296875 697.89453125 347.9375 752.25 280.986328125 752.25 c 0
EndSplineSet
Validated: 524289
EndChar

StartChar: uni3046
Encoding: 12358 12358 2
Width: 706
Flags: W
HStem: -25.916 37.4238<157.102 549.412> 592.23 37.4238<157.102 549.412>
VStem: 130 27.1016<11.5078 592.23> 549.412 27.0996<11.5078 592.23>
LayerCount: 2
Fore
SplineSet
130 629.654296875 m 1
 576.51171875 629.654296875 l 1
 576.51171875 -25.916015625 l 1
 130 -25.916015625 l 1
 130 629.654296875 l 1
157.1015625 592.23046875 m 1
 157.1015625 11.5078125 l 1
 549.412109375 11.5078125 l 1
 549.412109375 592.23046875 l 1
 157.1015625 592.23046875 l 1
EndSplineSet
Validated: 524289
EndChar

StartChar: uni3048
Encoding: 12360 12360 3
Width: 741
Flags: W
HStem: 763.347 21.167<163.423 590.121>
VStem: 590.121 21.168<-69.9961 763.347>
LayerCount: 2
Fore
SplineSet
611.2890625 784.513671875 m 1024
590.12109375 -69.99609375 m 1
 590.12109375 763.346679688 l 1
 163.422851562 763.346679688 l 1
 590.12109375 -69.99609375 l 1
611.2890625 -147.982421875 m 1
 130 784.513671875 l 1
 611.2890625 784.513671875 l 1
 611.2890625 -147.982421875 l 1
EndSplineSet
Validated: 524289
EndChar

StartChar: uni304A
Encoding: 12362 12362 4
Width: 706
Flags: W
HStem: 79.9043 33.5527<275.87 430.639> 492.861 33.5527<275.87 430.638>
VStem: 130 33.5527<225.776 380.544> 542.957 33.5527<225.776 380.544>
LayerCount: 2
Fore
SplineSet
353.25390625 526.4140625 m 0
 476.471679688 526.4140625 576.508789062 426.377929688 576.509765625 303.16015625 c 0
 576.509765625 179.942382812 476.471679688 79.904296875 353.25390625 79.904296875 c 0
 230.036132812 79.9052734375 130 179.942382812 130 303.16015625 c 0
 130.000976562 426.376953125 230.037109375 526.413085938 353.25390625 526.4140625 c 0
353.25390625 492.861328125 m 0
 248.555664062 492.860351562 163.553710938 407.858398438 163.552734375 303.16015625 c 0
 163.552734375 198.4609375 248.5546875 113.458007812 353.25390625 113.45703125 c 0
 457.954101562 113.45703125 542.95703125 198.459960938 542.95703125 303.16015625 c 0
 542.956054688 407.859375 457.953125 492.861328125 353.25390625 492.861328125 c 0
EndSplineSet
Validated: 524289
EndChar

StartChar: uni304B
Encoding: 12363 12363 5
Width: 1100
Flags: W
HStem: -175.615 21.168<522.163 948.86>
VStem: 130 131.631<-119.582 784.514> 948.86 21.168<-154.447 678.896>
LayerCount: 2
Fore
SplineSet
970.028320312 -175.615234375 m 1024
948.860351562 678.895507812 m 1
 522.163085938 -154.447265625 l 1
 948.860351562 -154.447265625 l 1
 948.860351562 678.895507812 l 1
970.028320312 756.881835938 m 1
 970.028320312 -175.615234375 l 1
 488.740234375 -175.615234375 l 1
 970.028320312 756.881835938 l 1
130 784.513671875 m 1
 261.630859375 784.513671875 l 1
 261.630859375 -119.58203125 l 1
 683.216796875 784.513671875 l 1
 776.1328125 784.513671875 l 1
 328.41796875 -175.615234375 l 1
 261.630859375 -175.615234375 l 1
 235.501953125 -175.615234375 l 1
 130 -175.615234375 l 1
 130 784.513671875 l 1
EndSplineSet
Validated: 524289
EndChar

StartChar: uni304D
Encoding: 12365 12365 6
Width: 1212
Flags: W
HStem: 479.957 29.6797<874.453 987.595> 752.25 29.6816<874.452 987.595>
VStem: 130 131.631<-119.582 784.514> 780.037 29.6797<574.373 687.515> 870.371 121.307<-175.615 438.661> 1052.33 29.6816<574.373 687.515>
LayerCount: 2
Fore
SplineSet
870.37109375 -175.615234375 m 1
 870.37109375 438.661132812 l 1
 991.677734375 438.661132812 l 1
 991.677734375 -175.615234375 l 1
 870.37109375 -175.615234375 l 1
931.0234375 781.931640625 m 0
 1014.35546875 781.931640625 1082.01171875 714.276367188 1082.01171875 630.943359375 c 0
 1082.01074219 547.612304688 1014.35546875 479.95703125 931.0234375 479.95703125 c 0
 847.692382812 479.958007812 780.038085938 547.612304688 780.037109375 630.943359375 c 0
 780.037109375 714.275390625 847.69140625 781.930664062 931.0234375 781.931640625 c 0
931.0234375 752.25 m 0
 864.072265625 752.25 809.716796875 697.89453125 809.716796875 630.943359375 c 0
 809.716796875 563.993164062 864.072265625 509.63671875 931.0234375 509.63671875 c 0
 997.974609375 509.63671875 1052.33007812 563.993164062 1052.33007812 630.943359375 c 0
 1052.33007812 697.89453125 997.974609375 752.25 931.0234375 752.25 c 0
130 784.513671875 m 1
 261.630859375 784.513671875 l 1
 261.630859375 -119.58203125 l 1
 683.216796875 784.513671875 l 1
 776.1328125 784.513671875 l 1
 328.41796875 -175.615234375 l 1
 261.630859375 -175.615234375 l 1
 235.501953125 -175.615234375 l 1
 130 -175.615234375 l 1
 130 784.513671875 l 1
EndSplineSet
Validated: 524289
EndChar

StartChar: uni304F
Encoding: 12367 12367 7
Width: 1309
Flags: W
HStem: -67.916 37.4238<760.031 1152.34> 550.23 37.4238<760.031 1152.34>
VStem: 130 131.631<-119.582 784.514> 732.93 27.1016<-30.4922 550.23> 1152.34 27.0996<-30.4922 550.23>
LayerCount: 2
Fore
SplineSet
732.9296875 587.654296875 m 1
 1179.44140625 587.654296875 l 1
 1179.44140625 -67.916015625 l 1
 732.9296875 -67.916015625 l 1
 732.9296875 587.654296875 l 1
760.03125 550.23046875 m 1
 760.03125 -30.4921875 l 1
 1152.34179688 -30.4921875 l 1
 1152.34179688 550.23046875 l 1
 760.03125 550.23046875 l 1
130 784.513671875 m 1
 261.630859375 784.513671875 l 1
 261.630859375 -119.58203125 l 1
 683.216796875 784.513671875 l 1
 776.1328125 784.513671875 l 1
 328.41796875 -175.615234375 l 1
 261.630859375 -175.615234375 l 1
 235.501953125 -175.615234375 l 1
 130 -175.615234375 l 1
 130 784.513671875 l 1
EndSplineSet
Validated: 524289
EndChar

StartChar: uni3051
Encoding: 12369 12369 8
Width: 1396
Flags: W
HStem: 763.347 21.167<818.92 1245.62>
VStem: 130 131.631<-119.582 784.514> 1245.62 21.167<-69.9961 763.347>
LayerCount: 2
Fore
SplineSet
1266.78515625 784.513671875 m 1024
1245.61816406 -69.99609375 m 1
 1245.61816406 763.346679688 l 1
 818.919921875 763.346679688 l 1
 1245.61816406 -69.99609375 l 1
1266.78515625 -147.982421875 m 1
 785.497070312 784.513671875 l 1
 1266.78515625 784.513671875 l 1
 1266.78515625 -147.982421875 l 1
130 784.513671875 m 1
 261.630859375 784.513671875 l 1
 261.630859375 -119.58203125 l 1
 683.216796875 784.513671875 l 1
 776.1328125 784.513671875 l 1
 328.41796875 -175.615234375 l 1
 261.630859375 -175.615234375 l 1
 235.501953125 -175.615234375 l 1
 130 -175.615234375 l 1
 130 784.513671875 l 1
EndSplineSet
Validated: 524289
EndChar

StartChar: uni3053
Encoding: 12371 12371 9
Width: 1159
Flags: W
HStem: -16.0957 33.5527<729.315 884.084> 396.861 33.5527<729.316 884.084>
VStem: 130 131.631<-119.582 784.514> 583.445 33.5527<129.776 284.544> 996.402 33.5527<129.776 284.544>
LayerCount: 2
Fore
SplineSet
806.69921875 430.4140625 m 0
 929.916992188 430.4140625 1029.95410156 330.377929688 1029.95507812 207.16015625 c 0
 1029.95507812 83.9423828125 929.916992188 -16.095703125 806.69921875 -16.095703125 c 0
 683.481445312 -16.0947265625 583.4453125 83.9423828125 583.4453125 207.16015625 c 0
 583.446289062 330.376953125 683.482421875 430.413085938 806.69921875 430.4140625 c 0
806.69921875 396.861328125 m 0
 702.000976562 396.860351562 616.999023438 311.858398438 616.998046875 207.16015625 c 0
 616.998046875 102.4609375 702 17.4580078125 806.69921875 17.45703125 c 0
 911.399414062 17.45703125 996.40234375 102.459960938 996.40234375 207.16015625 c 0
 996.401367188 311.859375 911.3984375 396.861328125 806.69921875 396.861328125 c 0
130 784.513671875 m 1
 261.630859375 784.513671875 l 1
 261.630859375 -119.58203125 l 1
 683.216796875 784.513671875 l 1
 776.1328125 784.513671875 l 1
 328.41796875 -175.615234375 l 1
 261.630859375 -175.615234375 l 1
 235.501953125 -175.615234375 l 1
 130 -175.615234375 l 1
 130 784.513671875 l 1
EndSplineSet
Validated: 524289
EndChar

StartChar: uni3055
Encoding: 12373 12373 10
Width: 1300
Flags: W
HStem: -175.615 28.5439<142.35 562.07> -175.615 21.168<722.92 1149.62> 755.97 28.5439<228.41 653.615>
VStem: 1149.62 21.168<-154.447 678.896>
LayerCount: 2
Fore
SplineSet
1170.78515625 -175.615234375 m 1024x70
1149.6171875 678.895507812 m 1
 722.919921875 -154.447265625 l 1
 1149.6171875 -154.447265625 l 1
 1149.6171875 678.895507812 l 1
1170.78515625 756.881835938 m 1
 1170.78515625 -175.615234375 l 1
 689.497070312 -175.615234375 l 1
 1170.78515625 756.881835938 l 1
130 784.513671875 m 1
 194.19921875 784.513671875 l 1
 215.171875 784.513671875 l 1
 653.615234375 784.513671875 l 1
 653.615234375 755.969726562 l 1
 228.41015625 755.969726562 l 1
 660.48046875 -175.615234375 l 1
 601.767578125 -175.615234375 l 1
 575.30859375 -175.615234375 l 1x70
 142.349609375 -175.615234375 l 1
 142.349609375 -147.071289062 l 1
 562.0703125 -147.071289062 l 1xb0
 130 784.513671875 l 1
EndSplineSet
Validated: 524289
EndChar

StartChar: uni3057
Encoding: 12375 12375 11
Width: 1082
Flags: W
HStem: -175.615 28.5439<142.35 562.07> 479.957 29.6797<744.453 857.595> 755.97 28.5439<228.41 653.615 753.222 848.825>
VStem: 650.037 29.6797<574.373 687.515> 740.371 121.307<-175.615 438.661> 922.33 29.6816<574.373 687.515>
LayerCount: 2
Fore
SplineSet
740.37109375 -175.615234375 m 1
 740.37109375 438.661132812 l 1
 861.677734375 438.661132812 l 1
 861.677734375 -175.615234375 l 1
 740.37109375 -175.615234375 l 1
801.0234375 781.931640625 m 0
 884.35546875 781.931640625 952.01171875 714.276367188 952.01171875 630.943359375 c 0
 952.010742188 547.612304688 884.35546875 479.95703125 801.0234375 479.95703125 c 0
 717.692382812 479.958007812 650.038085938 547.612304688 650.037109375 630.943359375 c 0
 650.037109375 714.275390625 717.69140625 781.930664062 801.0234375 781.931640625 c 0
801.0234375 752.25 m 0
 734.072265625 752.25 679.716796875 697.89453125 679.716796875 630.943359375 c 0
 679.716796875 563.993164062 734.072265625 509.63671875 801.0234375 509.63671875 c 0
 867.974609375 509.63671875 922.330078125 563.993164062 922.330078125 630.943359375 c 0
 922.330078125 697.89453125 867.974609375 752.25 801.0234375 752.25 c 0
130 784.513671875 m 1
 194.19921875 784.513671875 l 1
 215.171875 784.513671875 l 1
 653.615234375 784.513671875 l 1
 653.615234375 755.969726562 l 1
 228.41015625 755.969726562 l 1
 660.48046875 -175.615234375 l 1
 601.767578125 -175.615234375 l 1
 575.30859375 -175.615234375 l 1
 142.349609375 -175.615234375 l 1
 142.349609375 -147.071289062 l 1
 562.0703125 -147.071289062 l 1
 130 784.513671875 l 1
EndSplineSet
Validated: 524289
EndChar

StartChar: uni3059
Encoding: 12377 12377 12
Width: 1183
Flags: W
HStem: -175.615 28.5439<142.35 562.07> 46.084 37.4238<634.031 1026.34> 664.23 37.4238<634.031 1026.34> 755.97 28.5439<228.41 653.615>
VStem: 606.93 27.1016<83.5078 664.23> 1026.34 27.0996<83.5078 664.23>
LayerCount: 2
Fore
SplineSet
606.9296875 701.654296875 m 1
 1053.44140625 701.654296875 l 1
 1053.44140625 46.083984375 l 1
 606.9296875 46.083984375 l 1
 606.9296875 701.654296875 l 1
634.03125 664.23046875 m 1
 634.03125 83.5078125 l 1
 1026.34179688 83.5078125 l 1
 1026.34179688 664.23046875 l 1
 634.03125 664.23046875 l 1
130 784.513671875 m 1
 194.19921875 784.513671875 l 1
 215.171875 784.513671875 l 1
 653.615234375 784.513671875 l 1
 653.615234375 755.969726562 l 1
 228.41015625 755.969726562 l 1
 660.48046875 -175.615234375 l 1
 601.767578125 -175.615234375 l 1
 575.30859375 -175.615234375 l 1
 142.349609375 -175.615234375 l 1
 142.349609375 -147.071289062 l 1
 562.0703125 -147.071289062 l 1
 130 784.513671875 l 1
EndSplineSet
Validated: 524289
EndChar

StartChar: uni305B
Encoding: 12379 12379 13
Width: 1302
Flags: W
HStem: -175.615 28.5439<142.35 562.07> 755.97 28.5439<228.41 653.615> 763.347 21.167<724.919 1151.62>
VStem: 1151.62 21.168<-69.9961 763.347>
LayerCount: 2
Fore
SplineSet
1172.78515625 784.513671875 m 1024xb0
1151.6171875 -69.99609375 m 1
 1151.6171875 763.346679688 l 1
 724.918945312 763.346679688 l 1
 1151.6171875 -69.99609375 l 1
1172.78515625 -147.982421875 m 1
 691.49609375 784.513671875 l 1
 1172.78515625 784.513671875 l 1
 1172.78515625 -147.982421875 l 1
130 784.513671875 m 1
 194.19921875 784.513671875 l 1
 215.171875 784.513671875 l 1xb0
 653.615234375 784.513671875 l 1
 653.615234375 755.969726562 l 1
 228.41015625 755.969726562 l 1xd0
 660.48046875 -175.615234375 l 1
 601.767578125 -175.615234375 l 1
 575.30859375 -175.615234375 l 1
 142.349609375 -175.615234375 l 1
 142.349609375 -147.071289062 l 1
 562.0703125 -147.071289062 l 1
 130 784.513671875 l 1
EndSplineSet
Validated: 524289
EndChar

StartChar: uni305D
Encoding: 12381 12381 14
Width: 1105
Flags: W
HStem: -175.615 28.5439<142.35 562.07> 161.904 33.5527<675.315 830.084> 574.861 33.5527<675.316 830.084> 755.97 28.5439<228.41 653.615>
VStem: 529.445 33.5527<307.776 462.544> 942.402 33.5527<307.776 462.544>
LayerCount: 2
Fore
SplineSet
752.69921875 608.4140625 m 0
 875.916992188 608.4140625 975.954101562 508.377929688 975.955078125 385.16015625 c 0
 975.955078125 261.942382812 875.916992188 161.904296875 752.69921875 161.904296875 c 0
 629.481445312 161.905273438 529.4453125 261.942382812 529.4453125 385.16015625 c 0
 529.446289062 508.376953125 629.482421875 608.413085938 752.69921875 608.4140625 c 0
752.69921875 574.861328125 m 0
 648.000976562 574.860351562 562.999023438 489.858398438 562.998046875 385.16015625 c 0
 562.998046875 280.4609375 648 195.458007812 752.69921875 195.45703125 c 0
 857.399414062 195.45703125 942.40234375 280.459960938 942.40234375 385.16015625 c 0
 942.401367188 489.859375 857.3984375 574.861328125 752.69921875 574.861328125 c 0
130 784.513671875 m 1
 194.19921875 784.513671875 l 1
 215.171875 784.513671875 l 1
 653.615234375 784.513671875 l 1
 653.615234375 755.969726562 l 1
 228.41015625 755.969726562 l 1
 660.48046875 -175.615234375 l 1
 601.767578125 -175.615234375 l 1
 575.30859375 -175.615234375 l 1
 142.349609375 -175.615234375 l 1
 142.349609375 -147.071289062 l 1
 562.0703125 -147.071289062 l 1
 130 784.513671875 l 1
EndSplineSet
Validated: 524289
EndChar

StartChar: uni305F
Encoding: 12383 12383 15
Width: 1086
Flags: W
HStem: -175.615 21.168<508.92 935.617> 245.087 116.145<332.423 600.846>
VStem: 130 118.726<-175.615 784.514> 935.617 21.168<-154.447 678.896>
LayerCount: 2
Fore
SplineSet
956.78515625 -175.615234375 m 1024
935.6171875 678.895507812 m 1
 508.919921875 -154.447265625 l 1
 935.6171875 -154.447265625 l 1
 935.6171875 678.895507812 l 1
956.78515625 756.881835938 m 1
 956.78515625 -175.615234375 l 1
 475.497070312 -175.615234375 l 1
 956.78515625 756.881835938 l 1
130 -175.615234375 m 1
 130 784.513671875 l 1
 248.725585938 784.513671875 l 1
 248.725585938 -175.615234375 l 1
 130 -175.615234375 l 1
332.422851562 245.086914062 m 1
 332.422851562 361.231445312 l 1
 600.845703125 361.231445312 l 1
 600.845703125 245.086914062 l 1
 332.422851562 245.086914062 l 1
EndSplineSet
Validated: 524289
EndChar

StartChar: uni3061
Encoding: 12385 12385 16
Width: 1036
Flags: W
HStem: 245.087 116.145<336.423 604.846> 479.957 29.6797<698.453 811.595> 752.25 29.6816<698.452 811.595>
VStem: 130 118.726<-175.615 784.514> 604.037 29.6797<574.373 687.515> 694.371 121.307<-175.615 438.661> 876.33 29.6816<574.373 687.515>
LayerCount: 2
Fore
SplineSet
694.37109375 -175.615234375 m 1
 694.37109375 438.661132812 l 1
 815.677734375 438.661132812 l 1
 815.677734375 -175.615234375 l 1
 694.37109375 -175.615234375 l 1
755.0234375 781.931640625 m 0
 838.35546875 781.931640625 906.01171875 714.276367188 906.01171875 630.943359375 c 0
 906.010742188 547.612304688 838.35546875 479.95703125 755.0234375 479.95703125 c 0
 671.692382812 479.958007812 604.038085938 547.612304688 604.037109375 630.943359375 c 0
 604.037109375 714.275390625 671.69140625 781.930664062 755.0234375 781.931640625 c 0
755.0234375 752.25 m 0
 688.072265625 752.25 633.716796875 697.89453125 633.716796875 630.943359375 c 0
 633.716796875 563.993164062 688.072265625 509.63671875 755.0234375 509.63671875 c 0
 821.974609375 509.63671875 876.330078125 563.993164062 876.330078125 630.943359375 c 0
 876.330078125 697.89453125 821.974609375 752.25 755.0234375 752.25 c 0
130 -175.615234375 m 1
 130 784.513671875 l 1
 248.725585938 784.513671875 l 1
 248.725585938 -175.615234375 l 1
 130 -175.615234375 l 1
336.422851562 245.086914062 m 1
 336.422851562 361.231445312 l 1
 604.845703125 361.231445312 l 1
 604.845703125 245.086914062 l 1
 336.422851562 245.086914062 l 1
EndSplineSet
Validated: 524289
EndChar

StartChar: uni3064
Encoding: 12388 12388 17
Width: 1219
Flags: W
HStem: -25.916 37.4238<670.031 1062.34> 245.087 116.145<312.423 580.846> 592.23 37.4238<670.031 1062.34>
VStem: 130 118.726<-175.615 784.514> 642.93 27.1016<11.5078 592.23> 1062.34 27.0996<11.5078 592.23>
LayerCount: 2
Back
SplineSet
642.9296875 629.654296875 m 1
 1089.44140625 629.654296875 l 1
 1089.44140625 -25.916015625 l 1
 642.9296875 -25.916015625 l 1
 642.9296875 629.654296875 l 1
670.03125 592.23046875 m 1
 670.03125 11.5078125 l 1
 1062.34179688 11.5078125 l 1
 1062.34179688 592.23046875 l 1
 670.03125 592.23046875 l 1
130 -175.615234375 m 1
 130 784.513671875 l 1
 248.725585938 784.513671875 l 1
 248.725585938 -175.615234375 l 1
 130 -175.615234375 l 1
312.422851562 245.086914062 m 1
 312.422851562 361.231445312 l 1
 580.845703125 361.231445312 l 1
 580.845703125 245.086914062 l 1
 312.422851562 245.086914062 l 1
EndSplineSet
Fore
SplineSet
642.9296875 629.654296875 m 1
 1089.44140625 629.654296875 l 1
 1089.44140625 -25.916015625 l 1
 642.9296875 -25.916015625 l 1
 642.9296875 629.654296875 l 1
670.03125 592.23046875 m 1
 670.03125 11.5078125 l 1
 1062.34179688 11.5078125 l 1
 1062.34179688 592.23046875 l 1
 670.03125 592.23046875 l 1
130 -175.615234375 m 1
 130 784.513671875 l 1
 248.725585938 784.513671875 l 1
 248.725585938 -175.615234375 l 1
 130 -175.615234375 l 1
312.422851562 245.086914062 m 1
 312.422851562 361.231445312 l 1
 580.845703125 361.231445312 l 1
 580.845703125 245.086914062 l 1
 312.422851562 245.086914062 l 1
EndSplineSet
Validated: 524289
EndChar

StartChar: uni3066
Encoding: 12390 12390 18
Width: 1086
Flags: W
HStem: 245.087 116.145<338.423 606.846> 763.347 21.167<508.92 935.617>
VStem: 130 118.726<-175.615 784.514> 935.617 21.168<-69.9961 763.347>
LayerCount: 2
Fore
SplineSet
956.78515625 784.513671875 m 1024
935.6171875 -69.99609375 m 1
 935.6171875 763.346679688 l 1
 508.919921875 763.346679688 l 1
 935.6171875 -69.99609375 l 1
956.78515625 -147.982421875 m 1
 475.497070312 784.513671875 l 1
 956.78515625 784.513671875 l 1
 956.78515625 -147.982421875 l 1
130 -175.615234375 m 1
 130 784.513671875 l 1
 248.725585938 784.513671875 l 1
 248.725585938 -175.615234375 l 1
 130 -175.615234375 l 1
338.422851562 245.086914062 m 1
 338.422851562 361.231445312 l 1
 606.845703125 361.231445312 l 1
 606.845703125 245.086914062 l 1
 338.422851562 245.086914062 l 1
EndSplineSet
Validated: 524289
EndChar

StartChar: uni3068
Encoding: 12392 12392 19
Width: 1225
Flags: W
HStem: 79.9043 33.5527<795.315 950.084> 245.087 116.145<320.423 588.846> 492.861 33.5527<795.316 950.084>
VStem: 130 118.726<-175.615 784.514> 649.445 33.5527<225.776 380.544> 1062.4 33.5527<225.776 380.544>
CounterMasks: 1 e0
LayerCount: 2
Fore
SplineSet
872.69921875 526.4140625 m 0
 995.916992188 526.4140625 1095.95410156 426.377929688 1095.95507812 303.16015625 c 0
 1095.95507812 179.942382812 995.916992188 79.904296875 872.69921875 79.904296875 c 0
 749.481445312 79.9052734375 649.4453125 179.942382812 649.4453125 303.16015625 c 0
 649.446289062 426.376953125 749.482421875 526.413085938 872.69921875 526.4140625 c 0
872.69921875 492.861328125 m 0
 768.000976562 492.860351562 682.999023438 407.858398438 682.998046875 303.16015625 c 0
 682.998046875 198.4609375 768 113.458007812 872.69921875 113.45703125 c 0
 977.399414062 113.45703125 1062.40234375 198.459960938 1062.40234375 303.16015625 c 0
 1062.40136719 407.859375 977.3984375 492.861328125 872.69921875 492.861328125 c 0
130 -175.615234375 m 1
 130 784.513671875 l 1
 248.725585938 784.513671875 l 1
 248.725585938 -175.615234375 l 1
 130 -175.615234375 l 1
320.422851562 245.086914062 m 1
 320.422851562 361.231445312 l 1
 588.845703125 361.231445312 l 1
 588.845703125 245.086914062 l 1
 320.422851562 245.086914062 l 1
EndSplineSet
Validated: 524289
EndChar

StartChar: uni306A
Encoding: 12394 12394 20
Width: 1416
Flags: W
HStem: -175.615 21.168<838.92 1265.62>
VStem: 130 131.631<-175.615 728.48> 1265.62 21.168<-154.447 678.896>
LayerCount: 2
Fore
SplineSet
1286.78515625 -175.615234375 m 1024
1265.6171875 678.895507812 m 1
 838.919921875 -154.447265625 l 1
 1265.6171875 -154.447265625 l 1
 1265.6171875 678.895507812 l 1
1286.78515625 756.881835938 m 1
 1286.78515625 -175.615234375 l 1
 805.497070312 -175.615234375 l 1
 1286.78515625 756.881835938 l 1
130 -175.615234375 m 1
 130 784.513671875 l 1
 235.501953125 784.513671875 l 1
 261.630859375 784.513671875 l 1
 328.41796875 784.513671875 l 1
 776.1328125 -175.615234375 l 1
 683.216796875 -175.615234375 l 1
 261.630859375 728.48046875 l 1
 261.630859375 -175.615234375 l 1
 130 -175.615234375 l 1
EndSplineSet
Validated: 524289
EndChar

StartChar: uni306B
Encoding: 12395 12395 21
Width: 1138
Flags: W
HStem: 479.957 29.6797<800.453 913.595> 752.25 29.6816<800.452 913.595>
VStem: 130 131.631<-175.615 728.48> 706.037 29.6797<574.373 687.515> 796.371 121.307<-175.615 438.661> 978.33 29.6816<574.373 687.515>
LayerCount: 2
Fore
SplineSet
796.37109375 -175.615234375 m 1
 796.37109375 438.661132812 l 1
 917.677734375 438.661132812 l 1
 917.677734375 -175.615234375 l 1
 796.37109375 -175.615234375 l 1
857.0234375 781.931640625 m 0
 940.35546875 781.931640625 1008.01171875 714.276367188 1008.01171875 630.943359375 c 0
 1008.01074219 547.612304688 940.35546875 479.95703125 857.0234375 479.95703125 c 0
 773.692382812 479.958007812 706.038085938 547.612304688 706.037109375 630.943359375 c 0
 706.037109375 714.275390625 773.69140625 781.930664062 857.0234375 781.931640625 c 0
857.0234375 752.25 m 0
 790.072265625 752.25 735.716796875 697.89453125 735.716796875 630.943359375 c 0
 735.716796875 563.993164062 790.072265625 509.63671875 857.0234375 509.63671875 c 0
 923.974609375 509.63671875 978.330078125 563.993164062 978.330078125 630.943359375 c 0
 978.330078125 697.89453125 923.974609375 752.25 857.0234375 752.25 c 0
130 -175.615234375 m 1
 130 784.513671875 l 1
 235.501953125 784.513671875 l 1
 261.630859375 784.513671875 l 1
 328.41796875 784.513671875 l 1
 776.1328125 -175.615234375 l 1
 683.216796875 -175.615234375 l 1
 261.630859375 728.48046875 l 1
 261.630859375 -175.615234375 l 1
 130 -175.615234375 l 1
EndSplineSet
Validated: 524289
EndChar

StartChar: uni306C
Encoding: 12396 12396 22
Width: 1291
Flags: W
HStem: 46.084 37.4238<742.031 1134.34> 664.23 37.4238<742.031 1134.34>
VStem: 130 131.631<-175.615 728.48> 714.93 27.1016<83.5078 664.23> 1134.34 27.0996<83.5078 664.23>
LayerCount: 2
Fore
SplineSet
714.9296875 701.654296875 m 1
 1161.44140625 701.654296875 l 1
 1161.44140625 46.083984375 l 1
 714.9296875 46.083984375 l 1
 714.9296875 701.654296875 l 1
742.03125 664.23046875 m 1
 742.03125 83.5078125 l 1
 1134.34179688 83.5078125 l 1
 1134.34179688 664.23046875 l 1
 742.03125 664.23046875 l 1
130 -175.615234375 m 1
 130 784.513671875 l 1
 235.501953125 784.513671875 l 1
 261.630859375 784.513671875 l 1
 328.41796875 784.513671875 l 1
 776.1328125 -175.615234375 l 1
 683.216796875 -175.615234375 l 1
 261.630859375 728.48046875 l 1
 261.630859375 -175.615234375 l 1
 130 -175.615234375 l 1
EndSplineSet
Validated: 524289
EndChar

StartChar: uni306D
Encoding: 12397 12397 23
Width: 1004
Flags: W
HStem: 763.347 21.167<426.92 853.617>
VStem: 130 131.631<-175.615 728.48> 853.617 21.168<-69.9961 763.347>
LayerCount: 2
Fore
SplineSet
874.78515625 784.513671875 m 1024
853.6171875 -69.99609375 m 1
 853.6171875 763.346679688 l 1
 426.919921875 763.346679688 l 1
 853.6171875 -69.99609375 l 1
874.78515625 -147.982421875 m 1
 393.497070312 784.513671875 l 1
 874.78515625 784.513671875 l 1
 874.78515625 -147.982421875 l 1
130 -175.615234375 m 1
 130 784.513671875 l 1
 235.501953125 784.513671875 l 1
 261.630859375 784.513671875 l 1
 328.41796875 784.513671875 l 1
 776.1328125 -175.615234375 l 1
 683.216796875 -175.615234375 l 1
 261.630859375 728.48046875 l 1
 261.630859375 -175.615234375 l 1
 130 -175.615234375 l 1
EndSplineSet
Validated: 524289
EndChar

StartChar: uni306E
Encoding: 12398 12398 24
Width: 1151
Flags: W
HStem: 199.904 33.5527<721.315 876.084> 612.861 33.5527<721.316 876.084>
VStem: 130 131.631<-175.615 728.48> 575.445 33.5527<345.776 500.544> 988.402 33.5527<345.776 500.544>
LayerCount: 2
Fore
SplineSet
798.69921875 646.4140625 m 0
 921.916992188 646.4140625 1021.95410156 546.377929688 1021.95507812 423.16015625 c 0
 1021.95507812 299.942382812 921.916992188 199.904296875 798.69921875 199.904296875 c 0
 675.481445312 199.905273438 575.4453125 299.942382812 575.4453125 423.16015625 c 0
 575.446289062 546.376953125 675.482421875 646.413085938 798.69921875 646.4140625 c 0
798.69921875 612.861328125 m 0
 694.000976562 612.860351562 608.999023438 527.858398438 608.998046875 423.16015625 c 0
 608.998046875 318.4609375 694 233.458007812 798.69921875 233.45703125 c 0
 903.399414062 233.45703125 988.40234375 318.459960938 988.40234375 423.16015625 c 0
 988.401367188 527.859375 903.3984375 612.861328125 798.69921875 612.861328125 c 0
130 -175.615234375 m 1
 130 784.513671875 l 1
 235.501953125 784.513671875 l 1
 261.630859375 784.513671875 l 1
 328.41796875 784.513671875 l 1
 776.1328125 -175.615234375 l 1
 683.216796875 -175.615234375 l 1
 261.630859375 728.48046875 l 1
 261.630859375 -175.615234375 l 1
 130 -175.615234375 l 1
EndSplineSet
Validated: 524289
EndChar

StartChar: uni306F
Encoding: 12399 12399 25
Width: 1392
Flags: W
HStem: -175.615 28.3906<248.727 749.566> -175.615 21.168<814.92 1241.62>
VStem: 130 118.727<-147.225 784.514> 1241.62 21.168<-154.447 678.896>
LayerCount: 2
Fore
SplineSet
1262.78515625 -175.615234375 m 1024x70
1241.6171875 678.895507812 m 1
 814.919921875 -154.447265625 l 1
 1241.6171875 -154.447265625 l 1
 1241.6171875 678.895507812 l 1
1262.78515625 756.881835938 m 1
 1262.78515625 -175.615234375 l 1
 781.497070312 -175.615234375 l 1
 1262.78515625 756.881835938 l 1
130 784.513671875 m 1
 248.7265625 784.513671875 l 1
 248.7265625 -147.224609375 l 1
 749.56640625 -147.224609375 l 1
 749.56640625 -175.615234375 l 1
 248.7265625 -175.615234375 l 1xb0
 180.40625 -175.615234375 l 1
 130 -175.615234375 l 1
 130 784.513671875 l 1
EndSplineSet
Validated: 524289
EndChar

StartChar: uni3072
Encoding: 12402 12402 26
Width: 1132
Flags: W
HStem: -175.615 28.3906<248.727 749.566> 479.957 29.6797<794.453 907.595> 752.25 29.6816<794.452 907.595>
VStem: 130 118.727<-147.225 784.514> 700.037 29.6797<574.373 687.515> 790.371 121.307<-175.615 438.661> 972.33 29.6816<574.373 687.515>
LayerCount: 2
Fore
SplineSet
790.37109375 -175.615234375 m 1
 790.37109375 438.661132812 l 1
 911.677734375 438.661132812 l 1
 911.677734375 -175.615234375 l 1
 790.37109375 -175.615234375 l 1
851.0234375 781.931640625 m 0
 934.35546875 781.931640625 1002.01171875 714.276367188 1002.01171875 630.943359375 c 0
 1002.01074219 547.612304688 934.35546875 479.95703125 851.0234375 479.95703125 c 0
 767.692382812 479.958007812 700.038085938 547.612304688 700.037109375 630.943359375 c 0
 700.037109375 714.275390625 767.69140625 781.930664062 851.0234375 781.931640625 c 0
851.0234375 752.25 m 0
 784.072265625 752.25 729.716796875 697.89453125 729.716796875 630.943359375 c 0
 729.716796875 563.993164062 784.072265625 509.63671875 851.0234375 509.63671875 c 0
 917.974609375 509.63671875 972.330078125 563.993164062 972.330078125 630.943359375 c 0
 972.330078125 697.89453125 917.974609375 752.25 851.0234375 752.25 c 0
130 784.513671875 m 1
 248.7265625 784.513671875 l 1
 248.7265625 -147.224609375 l 1
 749.56640625 -147.224609375 l 1
 749.56640625 -175.615234375 l 1
 248.7265625 -175.615234375 l 1
 180.40625 -175.615234375 l 1
 130 -175.615234375 l 1
 130 784.513671875 l 1
EndSplineSet
Validated: 524289
EndChar

StartChar: uni3075
Encoding: 12405 12405 27
Width: 1021
Flags: W
HStem: -175.615 28.3906<248.727 749.566> 128.943 37.4238<472.031 864.342> 747.09 37.4238<472.031 864.342>
VStem: 130 118.727<-147.225 784.514> 444.93 27.1016<166.367 747.09> 864.342 27.0996<166.367 747.09>
LayerCount: 2
Fore
SplineSet
444.9296875 784.513671875 m 1
 891.44140625 784.513671875 l 1
 891.44140625 128.943359375 l 1
 444.9296875 128.943359375 l 1
 444.9296875 784.513671875 l 1
472.03125 747.08984375 m 1
 472.03125 166.3671875 l 1
 864.341796875 166.3671875 l 1
 864.341796875 747.08984375 l 1
 472.03125 747.08984375 l 1
130 784.513671875 m 1
 248.7265625 784.513671875 l 1
 248.7265625 -147.224609375 l 1
 749.56640625 -147.224609375 l 1
 749.56640625 -175.615234375 l 1
 248.7265625 -175.615234375 l 1
 180.40625 -175.615234375 l 1
 130 -175.615234375 l 1
 130 784.513671875 l 1
EndSplineSet
Validated: 524289
EndChar

StartChar: uni3078
Encoding: 12408 12408 28
Width: 958
Flags: W
HStem: -175.615 28.3906<248.727 749.566> 763.347 21.167<380.92 807.617>
VStem: 130 118.727<-147.225 784.514> 807.617 21.168<-69.9961 763.347>
LayerCount: 2
Fore
SplineSet
828.78515625 784.513671875 m 1024
807.6171875 -69.99609375 m 1
 807.6171875 763.346679688 l 1
 380.919921875 763.346679688 l 1
 807.6171875 -69.99609375 l 1
828.78515625 -147.982421875 m 1
 347.497070312 784.513671875 l 1
 828.78515625 784.513671875 l 1
 828.78515625 -147.982421875 l 1
130 784.513671875 m 1
 248.7265625 784.513671875 l 1
 248.7265625 -147.224609375 l 1
 749.56640625 -147.224609375 l 1
 749.56640625 -175.615234375 l 1
 248.7265625 -175.615234375 l 1
 180.40625 -175.615234375 l 1
 130 -175.615234375 l 1
 130 784.513671875 l 1
EndSplineSet
Validated: 524289
EndChar

StartChar: uni307B
Encoding: 12411 12411 29
Width: 1019
Flags: W
HStem: -175.615 28.3906<248.727 749.566> 79.9043 33.5527<589.315 744.084> 492.861 33.5527<589.316 744.084>
VStem: 130 118.727<-147.225 784.514> 443.445 33.5527<225.776 380.544> 856.402 33.5527<225.776 380.544>
LayerCount: 2
Fore
SplineSet
666.69921875 526.4140625 m 0
 789.916992188 526.4140625 889.954101562 426.377929688 889.955078125 303.16015625 c 0
 889.955078125 179.942382812 789.916992188 79.904296875 666.69921875 79.904296875 c 0
 543.481445312 79.9052734375 443.4453125 179.942382812 443.4453125 303.16015625 c 0
 443.446289062 426.376953125 543.482421875 526.413085938 666.69921875 526.4140625 c 0
666.69921875 492.861328125 m 0
 562.000976562 492.860351562 476.999023438 407.858398438 476.998046875 303.16015625 c 0
 476.998046875 198.4609375 562 113.458007812 666.69921875 113.45703125 c 0
 771.399414062 113.45703125 856.40234375 198.459960938 856.40234375 303.16015625 c 0
 856.401367188 407.859375 771.3984375 492.861328125 666.69921875 492.861328125 c 0
130 784.513671875 m 1
 248.7265625 784.513671875 l 1
 248.7265625 -147.224609375 l 1
 749.56640625 -147.224609375 l 1
 749.56640625 -175.615234375 l 1
 248.7265625 -175.615234375 l 1
 180.40625 -175.615234375 l 1
 130 -175.615234375 l 1
 130 784.513671875 l 1
EndSplineSet
Validated: 524289
EndChar

StartChar: uni307E
Encoding: 12414 12414 30
Width: 1150
Flags: W
HStem: -175.615 21.168<572.92 999.617>
VStem: 130 118.726<-175.615 784.514> 374.95 118.726<-175.615 784.514> 999.617 21.168<-154.447 678.896>
LayerCount: 2
Fore
SplineSet
1020.78515625 -175.615234375 m 1024
999.6171875 678.895507812 m 1
 572.919921875 -154.447265625 l 1
 999.6171875 -154.447265625 l 1
 999.6171875 678.895507812 l 1
1020.78515625 756.881835938 m 1
 1020.78515625 -175.615234375 l 1
 539.497070312 -175.615234375 l 1
 1020.78515625 756.881835938 l 1
130 -175.615234375 m 1
 130 784.513671875 l 1
 248.725585938 784.513671875 l 1
 248.725585938 -175.615234375 l 1
 130 -175.615234375 l 1
374.950195312 -175.615234375 m 1
 374.950195312 784.513671875 l 1
 493.67578125 784.513671875 l 1
 493.67578125 -175.615234375 l 1
 374.950195312 -175.615234375 l 1
EndSplineSet
Validated: 524289
EndChar

StartChar: uni307F
Encoding: 12415 12415 31
Width: 1102
Flags: W
HStem: 479.957 29.6797<764.453 877.595> 752.25 29.6816<764.452 877.595>
VStem: 130 118.726<-175.615 784.514> 374.95 118.726<-175.615 784.514> 670.037 29.6797<574.373 687.515> 760.371 121.307<-175.615 438.661> 942.33 29.6816<574.373 687.515>
LayerCount: 2
Fore
SplineSet
760.37109375 -175.615234375 m 1
 760.37109375 438.661132812 l 1
 881.677734375 438.661132812 l 1
 881.677734375 -175.615234375 l 1
 760.37109375 -175.615234375 l 1
821.0234375 781.931640625 m 0
 904.35546875 781.931640625 972.01171875 714.276367188 972.01171875 630.943359375 c 0
 972.010742188 547.612304688 904.35546875 479.95703125 821.0234375 479.95703125 c 0
 737.692382812 479.958007812 670.038085938 547.612304688 670.037109375 630.943359375 c 0
 670.037109375 714.275390625 737.69140625 781.930664062 821.0234375 781.931640625 c 0
821.0234375 752.25 m 0
 754.072265625 752.25 699.716796875 697.89453125 699.716796875 630.943359375 c 0
 699.716796875 563.993164062 754.072265625 509.63671875 821.0234375 509.63671875 c 0
 887.974609375 509.63671875 942.330078125 563.993164062 942.330078125 630.943359375 c 0
 942.330078125 697.89453125 887.974609375 752.25 821.0234375 752.25 c 0
130 -175.615234375 m 1
 130 784.513671875 l 1
 248.725585938 784.513671875 l 1
 248.725585938 -175.615234375 l 1
 130 -175.615234375 l 1
374.950195312 -175.615234375 m 1
 374.950195312 784.513671875 l 1
 493.67578125 784.513671875 l 1
 493.67578125 -175.615234375 l 1
 374.950195312 -175.615234375 l 1
EndSplineSet
Validated: 524289
EndChar

StartChar: uni3080
Encoding: 12416 12416 32
Width: 1219
Flags: W
HStem: 128.943 37.4238<670.031 1062.34> 747.09 37.4238<670.031 1062.34>
VStem: 130 118.726<-175.615 784.514> 374.95 118.726<-175.615 784.514> 642.93 27.1016<166.367 747.09> 1062.34 27.0996<166.367 747.09>
LayerCount: 2
Fore
SplineSet
642.9296875 784.513671875 m 1
 1089.44140625 784.513671875 l 1
 1089.44140625 128.943359375 l 1
 642.9296875 128.943359375 l 1
 642.9296875 784.513671875 l 1
670.03125 747.08984375 m 1
 670.03125 166.3671875 l 1
 1062.34179688 166.3671875 l 1
 1062.34179688 747.08984375 l 1
 670.03125 747.08984375 l 1
130 -175.615234375 m 1
 130 784.513671875 l 1
 248.725585938 784.513671875 l 1
 248.725585938 -175.615234375 l 1
 130 -175.615234375 l 1
374.950195312 -175.615234375 m 1
 374.950195312 784.513671875 l 1
 493.67578125 784.513671875 l 1
 493.67578125 -175.615234375 l 1
 374.950195312 -175.615234375 l 1
EndSplineSet
Validated: 524289
EndChar

StartChar: uni3081
Encoding: 12417 12417 33
Width: 1200
Flags: W
HStem: 763.347 21.167<622.92 1049.62>
VStem: 130 118.726<-175.615 784.514> 374.95 118.726<-175.615 784.514> 1049.62 21.168<-69.9961 763.347>
LayerCount: 2
Fore
SplineSet
1070.78515625 784.513671875 m 1024
1049.6171875 -69.99609375 m 1
 1049.6171875 763.346679688 l 1
 622.919921875 763.346679688 l 1
 1049.6171875 -69.99609375 l 1
1070.78515625 -147.982421875 m 1
 589.497070312 784.513671875 l 1
 1070.78515625 784.513671875 l 1
 1070.78515625 -147.982421875 l 1
130 -175.615234375 m 1
 130 784.513671875 l 1
 248.725585938 784.513671875 l 1
 248.725585938 -175.615234375 l 1
 130 -175.615234375 l 1
374.950195312 -175.615234375 m 1
 374.950195312 784.513671875 l 1
 493.67578125 784.513671875 l 1
 493.67578125 -175.615234375 l 1
 374.950195312 -175.615234375 l 1
EndSplineSet
Validated: 524289
EndChar

StartChar: uni3082
Encoding: 12418 12418 34
Width: 1187
Flags: W
HStem: 79.9043 33.5527<757.315 912.084> 492.861 33.5527<757.316 912.084>
VStem: 130 118.726<-175.615 784.514> 374.95 118.726<-175.615 784.514> 611.445 33.5527<225.776 380.544> 1024.4 33.5527<225.776 380.544>
LayerCount: 2
Fore
SplineSet
834.69921875 526.4140625 m 0
 957.916992188 526.4140625 1057.95410156 426.377929688 1057.95507812 303.16015625 c 0
 1057.95507812 179.942382812 957.916992188 79.904296875 834.69921875 79.904296875 c 0
 711.481445312 79.9052734375 611.4453125 179.942382812 611.4453125 303.16015625 c 0
 611.446289062 426.376953125 711.482421875 526.413085938 834.69921875 526.4140625 c 0
834.69921875 492.861328125 m 0
 730.000976562 492.860351562 644.999023438 407.858398438 644.998046875 303.16015625 c 0
 644.998046875 198.4609375 730 113.458007812 834.69921875 113.45703125 c 0
 939.399414062 113.45703125 1024.40234375 198.459960938 1024.40234375 303.16015625 c 0
 1024.40136719 407.859375 939.3984375 492.861328125 834.69921875 492.861328125 c 0
130 -175.615234375 m 1
 130 784.513671875 l 1
 248.725585938 784.513671875 l 1
 248.725585938 -175.615234375 l 1
 130 -175.615234375 l 1
374.950195312 -175.615234375 m 1
 374.950195312 784.513671875 l 1
 493.67578125 784.513671875 l 1
 493.67578125 -175.615234375 l 1
 374.950195312 -175.615234375 l 1
EndSplineSet
Validated: 524289
EndChar

StartChar: uni3084
Encoding: 12420 12420 35
Width: 1390
Flags: W
HStem: -175.615 21.168<812.92 1239.62> 756.123 28.3906<130 630.84>
VStem: 630.84 118.727<-175.615 756.123> 1239.62 21.168<-154.447 678.896>
LayerCount: 2
Fore
SplineSet
1260.78515625 -175.615234375 m 1024
1239.6171875 678.895507812 m 1
 812.919921875 -154.447265625 l 1
 1239.6171875 -154.447265625 l 1
 1239.6171875 678.895507812 l 1
1260.78515625 756.881835938 m 1
 1260.78515625 -175.615234375 l 1
 779.497070312 -175.615234375 l 1
 1260.78515625 756.881835938 l 1
749.56640625 -175.615234375 m 1
 630.83984375 -175.615234375 l 1
 630.83984375 756.123046875 l 1
 130 756.123046875 l 1
 130 784.513671875 l 1
 630.83984375 784.513671875 l 1
 699.16015625 784.513671875 l 1
 749.56640625 784.513671875 l 1
 749.56640625 -175.615234375 l 1
EndSplineSet
Validated: 524289
EndChar

StartChar: uni3086
Encoding: 12422 12422 36
Width: 1419
Flags: W
HStem: -25.916 37.4238<870.031 1262.34> 592.23 37.4238<870.031 1262.34> 756.123 28.3906<130 630.84>
VStem: 630.84 118.727<-175.615 756.123> 842.93 27.1016<11.5078 592.23> 1262.34 27.0996<11.5078 592.23>
LayerCount: 2
Fore
SplineSet
842.9296875 629.654296875 m 1
 1289.44140625 629.654296875 l 1
 1289.44140625 -25.916015625 l 1
 842.9296875 -25.916015625 l 1
 842.9296875 629.654296875 l 1
870.03125 592.23046875 m 1
 870.03125 11.5078125 l 1
 1262.34179688 11.5078125 l 1
 1262.34179688 592.23046875 l 1
 870.03125 592.23046875 l 1
749.56640625 -175.615234375 m 1
 630.83984375 -175.615234375 l 1
 630.83984375 756.123046875 l 1
 130 756.123046875 l 1
 130 784.513671875 l 1
 630.83984375 784.513671875 l 1
 699.16015625 784.513671875 l 1
 749.56640625 784.513671875 l 1
 749.56640625 -175.615234375 l 1
EndSplineSet
Validated: 524289
EndChar

StartChar: uni3088
Encoding: 12424 12424 37
Width: 1393
Flags: W
HStem: 79.9043 33.5527<963.315 1118.08> 492.861 33.5527<963.316 1118.08> 756.123 28.3906<130 630.84>
VStem: 630.84 118.727<-175.615 756.123> 817.445 33.5527<225.776 380.544> 1230.4 33.5527<225.776 380.544>
LayerCount: 2
Fore
SplineSet
1040.69921875 526.4140625 m 0
 1163.91699219 526.4140625 1263.95410156 426.377929688 1263.95507812 303.16015625 c 0
 1263.95507812 179.942382812 1163.91699219 79.904296875 1040.69921875 79.904296875 c 0
 917.481445312 79.9052734375 817.4453125 179.942382812 817.4453125 303.16015625 c 0
 817.446289062 426.376953125 917.482421875 526.413085938 1040.69921875 526.4140625 c 0
1040.69921875 492.861328125 m 0
 936.000976562 492.860351562 850.999023438 407.858398438 850.998046875 303.16015625 c 0
 850.998046875 198.4609375 936 113.458007812 1040.69921875 113.45703125 c 0
 1145.39941406 113.45703125 1230.40234375 198.459960938 1230.40234375 303.16015625 c 0
 1230.40136719 407.859375 1145.3984375 492.861328125 1040.69921875 492.861328125 c 0
749.56640625 -175.615234375 m 1
 630.83984375 -175.615234375 l 1
 630.83984375 756.123046875 l 1
 130 756.123046875 l 1
 130 784.513671875 l 1
 630.83984375 784.513671875 l 1
 699.16015625 784.513671875 l 1
 749.56640625 784.513671875 l 1
 749.56640625 -175.615234375 l 1
EndSplineSet
Validated: 524289
EndChar

StartChar: uni3089
Encoding: 12425 12425 38
Width: 966
Flags: W
HStem: -175.615 21.168<388.92 815.617> 756.123 28.3906<248.727 749.566>
VStem: 130 118.727<-175.615 756.123> 815.617 21.168<-154.447 678.896>
LayerCount: 2
Fore
SplineSet
836.78515625 -175.615234375 m 1024
815.6171875 678.895507812 m 1
 388.919921875 -154.447265625 l 1
 815.6171875 -154.447265625 l 1
 815.6171875 678.895507812 l 1
836.78515625 756.881835938 m 1
 836.78515625 -175.615234375 l 1
 355.497070312 -175.615234375 l 1
 836.78515625 756.881835938 l 1
130 -175.615234375 m 1
 130 784.513671875 l 1
 180.40625 784.513671875 l 1
 248.7265625 784.513671875 l 1
 749.56640625 784.513671875 l 1
 749.56640625 756.123046875 l 1
 248.7265625 756.123046875 l 1
 248.7265625 -175.615234375 l 1
 130 -175.615234375 l 1
EndSplineSet
Validated: 524289
EndChar

StartChar: uni308A
Encoding: 12426 12426 39
Width: 1178
Flags: W
HStem: 479.957 29.6797<840.453 953.595> 756.123 28.3906<248.727 749.566 849.222 944.825>
VStem: 130 118.727<-175.615 756.123> 746.037 29.6797<574.373 687.515> 836.371 121.307<-175.615 438.661> 1018.33 29.6816<574.373 687.515>
LayerCount: 2
Fore
SplineSet
836.37109375 -175.615234375 m 1
 836.37109375 438.661132812 l 1
 957.677734375 438.661132812 l 1
 957.677734375 -175.615234375 l 1
 836.37109375 -175.615234375 l 1
897.0234375 781.931640625 m 0
 980.35546875 781.931640625 1048.01171875 714.276367188 1048.01171875 630.943359375 c 0
 1048.01074219 547.612304688 980.35546875 479.95703125 897.0234375 479.95703125 c 0
 813.692382812 479.958007812 746.038085938 547.612304688 746.037109375 630.943359375 c 0
 746.037109375 714.275390625 813.69140625 781.930664062 897.0234375 781.931640625 c 0
897.0234375 752.25 m 0
 830.072265625 752.25 775.716796875 697.89453125 775.716796875 630.943359375 c 0
 775.716796875 563.993164062 830.072265625 509.63671875 897.0234375 509.63671875 c 0
 963.974609375 509.63671875 1018.33007812 563.993164062 1018.33007812 630.943359375 c 0
 1018.33007812 697.89453125 963.974609375 752.25 897.0234375 752.25 c 0
130 -175.615234375 m 1
 130 784.513671875 l 1
 180.40625 784.513671875 l 1
 248.7265625 784.513671875 l 1
 749.56640625 784.513671875 l 1
 749.56640625 756.123046875 l 1
 248.7265625 756.123046875 l 1
 248.7265625 -175.615234375 l 1
 130 -175.615234375 l 1
EndSplineSet
Validated: 524289
EndChar

StartChar: uni308B
Encoding: 12427 12427 40
Width: 1003
Flags: W
HStem: -175.615 37.4238<454.031 846.342> 442.531 37.4238<454.031 846.342> 756.123 28.3906<248.727 749.566>
VStem: 130 118.727<-175.615 756.123> 426.93 27.1016<-138.191 442.531> 846.342 27.0996<-138.191 442.531>
LayerCount: 2
Fore
SplineSet
426.9296875 479.955078125 m 1
 873.44140625 479.955078125 l 1
 873.44140625 -175.615234375 l 1
 426.9296875 -175.615234375 l 1
 426.9296875 479.955078125 l 1
454.03125 442.53125 m 1
 454.03125 -138.19140625 l 1
 846.341796875 -138.19140625 l 1
 846.341796875 442.53125 l 1
 454.03125 442.53125 l 1
130 -175.615234375 m 1
 130 784.513671875 l 1
 180.40625 784.513671875 l 1
 248.7265625 784.513671875 l 1
 749.56640625 784.513671875 l 1
 749.56640625 756.123046875 l 1
 248.7265625 756.123046875 l 1
 248.7265625 -175.615234375 l 1
 130 -175.615234375 l 1
EndSplineSet
Validated: 524289
EndChar

StartChar: uni308C
Encoding: 12428 12428 41
Width: 1392
Flags: W
HStem: 756.123 28.3906<248.727 749.566> 763.347 21.167<814.92 1241.62>
VStem: 130 118.727<-175.615 756.123> 1241.62 21.168<-69.9961 763.347>
LayerCount: 2
Fore
SplineSet
1262.78515625 784.513671875 m 1024x70
1241.6171875 -69.99609375 m 1
 1241.6171875 763.346679688 l 1
 814.919921875 763.346679688 l 1
 1241.6171875 -69.99609375 l 1
1262.78515625 -147.982421875 m 1
 781.497070312 784.513671875 l 1
 1262.78515625 784.513671875 l 1
 1262.78515625 -147.982421875 l 1
130 -175.615234375 m 1
 130 784.513671875 l 1
 180.40625 784.513671875 l 1x70
 248.7265625 784.513671875 l 1
 749.56640625 784.513671875 l 1
 749.56640625 756.123046875 l 1
 248.7265625 756.123046875 l 1xb0
 248.7265625 -175.615234375 l 1
 130 -175.615234375 l 1
EndSplineSet
Validated: 524289
EndChar

StartChar: uni308D
Encoding: 12429 12429 42
Width: 973
Flags: W
HStem: 79.9043 33.5527<543.315 698.084> 492.861 33.5527<543.316 698.084> 756.123 28.3906<248.727 749.566>
VStem: 130 118.727<-175.615 756.123> 397.445 33.5527<225.776 380.544> 810.402 33.5527<225.776 380.544>
LayerCount: 2
Fore
SplineSet
620.69921875 526.4140625 m 0
 743.916992188 526.4140625 843.954101562 426.377929688 843.955078125 303.16015625 c 0
 843.955078125 179.942382812 743.916992188 79.904296875 620.69921875 79.904296875 c 0
 497.481445312 79.9052734375 397.4453125 179.942382812 397.4453125 303.16015625 c 0
 397.446289062 426.376953125 497.482421875 526.413085938 620.69921875 526.4140625 c 0
620.69921875 492.861328125 m 0
 516.000976562 492.860351562 430.999023438 407.858398438 430.998046875 303.16015625 c 0
 430.998046875 198.4609375 516 113.458007812 620.69921875 113.45703125 c 0
 725.399414062 113.45703125 810.40234375 198.459960938 810.40234375 303.16015625 c 0
 810.401367188 407.859375 725.3984375 492.861328125 620.69921875 492.861328125 c 0
130 -175.615234375 m 1
 130 784.513671875 l 1
 180.40625 784.513671875 l 1
 248.7265625 784.513671875 l 1
 749.56640625 784.513671875 l 1
 749.56640625 756.123046875 l 1
 248.7265625 756.123046875 l 1
 248.7265625 -175.615234375 l 1
 130 -175.615234375 l 1
EndSplineSet
Validated: 524289
EndChar

StartChar: uni304C
Encoding: 12364 12364 43
Width: 1100
Flags: W
HStem: -175.615 21.168<522.162 948.861> 607.484 177.029<793 892.922 912.297 948.861>
VStem: 130 131.631<-119.582 784.514> 793 177.029<607.484 784.514> 948.861 21.168<-154.447 607.484>
LayerCount: 2
Fore
SplineSet
793 784.513671875 m 1xf0
 970.029296875 784.513671875 l 1
 970.029296875 756.880859375 l 1
 970.029296875 607.484375 l 1xf0
 970.029296875 -175.615234375 l 1xe8
 488.740234375 -175.615234375 l 1
 892.921875 607.484375 l 1
 793 607.484375 l 1
 793 784.513671875 l 1xf0
912.296875 607.484375 m 1
 522.162109375 -154.447265625 l 1
 948.861328125 -154.447265625 l 1
 948.861328125 607.484375 l 1xe8
 912.296875 607.484375 l 1
130 784.513671875 m 1
 261.630859375 784.513671875 l 1
 261.630859375 -119.58203125 l 1
 683.216796875 784.513671875 l 1
 776.1328125 784.513671875 l 1
 328.41796875 -175.615234375 l 1
 261.630859375 -175.615234375 l 1
 235.501953125 -175.615234375 l 1
 130 -175.615234375 l 1
 130 784.513671875 l 1
EndSplineSet
Validated: 524289
EndChar

StartChar: uni304E
Encoding: 12366 12366 44
Width: 1212
Flags: W
HStem: -175.615 177.028<522 699.028> 479.957 29.6797<874.453 987.595> 752.25 29.6816<874.452 987.595>
VStem: 130 131.631<-119.582 784.514> 522 177.028<-175.615 1.41309> 780.037 29.6797<574.373 687.515> 870.371 121.307<-175.615 438.661> 1052.33 29.6816<574.373 687.515>
LayerCount: 2
Fore
SplineSet
870.37109375 -175.615234375 m 1
 870.37109375 438.661132812 l 1
 991.677734375 438.661132812 l 1
 991.677734375 -175.615234375 l 1
 870.37109375 -175.615234375 l 1
931.0234375 781.931640625 m 0
 1014.35546875 781.931640625 1082.01171875 714.276367188 1082.01171875 630.943359375 c 0
 1082.01074219 547.612304688 1014.35546875 479.95703125 931.0234375 479.95703125 c 0
 847.692382812 479.958007812 780.038085938 547.612304688 780.037109375 630.943359375 c 0
 780.037109375 714.275390625 847.69140625 781.930664062 931.0234375 781.931640625 c 0
931.0234375 752.25 m 0
 864.072265625 752.25 809.716796875 697.89453125 809.716796875 630.943359375 c 0
 809.716796875 563.993164062 864.072265625 509.63671875 931.0234375 509.63671875 c 0
 997.974609375 509.63671875 1052.33007812 563.993164062 1052.33007812 630.943359375 c 0
 1052.33007812 697.89453125 997.974609375 752.25 931.0234375 752.25 c 0
522 -175.615234375 m 1
 522 1.4130859375 l 1
 699.028320312 1.4130859375 l 1
 699.028320312 -175.615234375 l 1
 522 -175.615234375 l 1
130 784.513671875 m 1
 261.630859375 784.513671875 l 1
 261.630859375 -119.58203125 l 1
 683.216796875 784.513671875 l 1
 776.1328125 784.513671875 l 1
 328.41796875 -175.615234375 l 1
 261.630859375 -175.615234375 l 1
 235.501953125 -175.615234375 l 1
 130 -175.615234375 l 1
 130 784.513671875 l 1
EndSplineSet
Validated: 524289
EndChar

StartChar: uni3050
Encoding: 12368 12368 45
Width: 1309
Flags: W
HStem: -67.916 37.4238<760.031 1152.34> 410.625 177.029<1002.41 1152.34> 550.23 37.4238<760.031 1002.41>
VStem: 130 131.631<-119.582 784.514> 732.93 27.1016<-30.4922 550.23> 1002.41 177.029<410.625 550.23> 1152.34 27.0996<-30.4922 410.625>
LayerCount: 2
Fore
SplineSet
732.9296875 587.654296875 m 1xba
 1002.41210938 587.654296875 l 1xdc
 1179.44140625 587.654296875 l 1xba
 1179.44140625 410.625 l 1xdc
 1179.44140625 -67.916015625 l 1
 732.9296875 -67.916015625 l 1
 732.9296875 587.654296875 l 1xba
760.03125 550.23046875 m 1xbc
 760.03125 -30.4921875 l 1
 1152.34179688 -30.4921875 l 1
 1152.34179688 410.625 l 1xda
 1002.41210938 410.625 l 1xdc
 1002.41210938 550.23046875 l 1
 760.03125 550.23046875 l 1xbc
130 784.513671875 m 1
 261.630859375 784.513671875 l 1
 261.630859375 -119.58203125 l 1
 683.216796875 784.513671875 l 1
 776.1328125 784.513671875 l 1
 328.41796875 -175.615234375 l 1
 261.630859375 -175.615234375 l 1
 235.501953125 -175.615234375 l 1
 130 -175.615234375 l 1
 130 784.513671875 l 1
EndSplineSet
Validated: 524289
EndChar

StartChar: uni3052
Encoding: 12370 12370 46
Width: 1396
Flags: W
HStem: 607.486 177.027<1089.76 1245.62> 763.346 21.168<818.92 1089.76>
VStem: 130 131.631<-119.582 784.514> 1089.76 177.027<607.486 763.346> 1245.62 21.168<-69.9961 607.486>
LayerCount: 2
Fore
SplineSet
785.49609375 784.513671875 m 1x68
 1089.7578125 784.513671875 l 1xb0
 1266.78515625 784.513671875 l 1x68
 1266.78515625 607.486328125 l 1xb0
 1266.78515625 -147.982421875 l 1
 785.49609375 784.513671875 l 1x68
818.919921875 763.345703125 m 1x70
 1245.6171875 -69.99609375 l 1
 1245.6171875 607.486328125 l 1xa8
 1089.7578125 607.486328125 l 1xb0
 1089.7578125 763.345703125 l 1
 818.919921875 763.345703125 l 1x70
130 784.513671875 m 1x60
 261.630859375 784.513671875 l 1
 261.630859375 -119.58203125 l 1
 683.216796875 784.513671875 l 1
 776.1328125 784.513671875 l 1
 328.41796875 -175.615234375 l 1
 261.630859375 -175.615234375 l 1
 235.501953125 -175.615234375 l 1
 130 -175.615234375 l 1
 130 784.513671875 l 1x60
EndSplineSet
Validated: 524289
EndChar

StartChar: uni3054
Encoding: 12372 12372 47
Width: 1159
Flags: W
HStem: -175.615 177.028<455.677 632.706> -16.0957 33.5527<729.315 884.084> 396.861 33.5527<729.316 884.084>
VStem: 130 131.631<-119.582 784.514> 455.677 177.029<-175.615 1.41309> 583.445 33.5527<129.776 284.544> 996.402 33.5527<129.776 284.544>
LayerCount: 2
Fore
SplineSet
806.69921875 430.4140625 m 0x76
 929.916992188 430.4140625 1029.95410156 330.377929688 1029.95507812 207.16015625 c 0
 1029.95507812 83.9423828125 929.916992188 -16.095703125 806.69921875 -16.095703125 c 0
 683.481445312 -16.0947265625 583.4453125 83.9423828125 583.4453125 207.16015625 c 0
 583.446289062 330.376953125 683.482421875 430.413085938 806.69921875 430.4140625 c 0x76
806.69921875 396.861328125 m 0
 702.000976562 396.860351562 616.999023438 311.858398438 616.998046875 207.16015625 c 0
 616.998046875 102.4609375 702 17.4580078125 806.69921875 17.45703125 c 0
 911.399414062 17.45703125 996.40234375 102.459960938 996.40234375 207.16015625 c 0
 996.401367188 311.859375 911.3984375 396.861328125 806.69921875 396.861328125 c 0
455.676757812 -175.615234375 m 1xba
 455.676757812 1.4130859375 l 1
 632.706054688 1.4130859375 l 1
 632.706054688 -175.615234375 l 1
 455.676757812 -175.615234375 l 1xba
130 784.513671875 m 1
 261.630859375 784.513671875 l 1
 261.630859375 -119.58203125 l 1
 683.216796875 784.513671875 l 1
 776.1328125 784.513671875 l 1
 328.41796875 -175.615234375 l 1
 261.630859375 -175.615234375 l 1
 235.501953125 -175.615234375 l 1
 130 -175.615234375 l 1
 130 784.513671875 l 1
EndSplineSet
Validated: 524289
EndChar

StartChar: uni3056
Encoding: 12374 12374 48
Width: 1300
Flags: W
HStem: -175.615 28.5439<142.35 562.07> -175.615 21.168<722.92 1149.62> 607.486 177.027<993.758 1093.68 1113.05 1149.62> 755.97 28.5439<228.41 653.615>
VStem: 993.758 177.027<607.486 784.514> 1149.62 21.168<-154.447 607.486>
LayerCount: 2
Fore
SplineSet
993.7578125 784.513671875 m 1x68
 1170.78515625 784.513671875 l 1x18
 1170.78515625 756.880859375 l 1
 1170.78515625 607.486328125 l 1x28
 1170.78515625 -175.615234375 l 1x64
 689.49609375 -175.615234375 l 1
 1093.67773438 607.486328125 l 1
 993.7578125 607.486328125 l 1
 993.7578125 784.513671875 l 1x68
1113.0546875 607.486328125 m 1x64
 722.919921875 -154.447265625 l 1
 1149.6171875 -154.447265625 l 1
 1149.6171875 607.486328125 l 1
 1113.0546875 607.486328125 l 1x64
130 784.513671875 m 1x90
 194.19921875 784.513671875 l 1
 215.171875 784.513671875 l 1
 653.615234375 784.513671875 l 1
 653.615234375 755.969726562 l 1
 228.41015625 755.969726562 l 1
 660.48046875 -175.615234375 l 1
 601.767578125 -175.615234375 l 1
 575.30859375 -175.615234375 l 1x50
 142.349609375 -175.615234375 l 1
 142.349609375 -147.071289062 l 1
 562.0703125 -147.071289062 l 1
 130 784.513671875 l 1x90
EndSplineSet
Validated: 524289
EndChar

StartChar: uni3058
Encoding: 12376 12376 49
Width: 1082
Flags: W
HStem: -175.615 28.5439<142.35 562.07> 435.445 177.028<439.15 616.18> 479.957 29.6797<744.453 857.595> 755.97 28.5439<228.41 653.615 753.222 848.825>
VStem: 439.15 177.029<435.445 612.474> 650.037 29.6797<574.373 687.515> 740.371 121.307<-175.615 438.661> 922.33 29.6816<574.373 687.515>
LayerCount: 2
Fore
SplineSet
740.37109375 -175.615234375 m 1x9f
 740.37109375 438.661132812 l 1
 861.677734375 438.661132812 l 1
 861.677734375 -175.615234375 l 1
 740.37109375 -175.615234375 l 1x9f
801.0234375 781.931640625 m 0
 884.35546875 781.931640625 952.01171875 714.276367188 952.01171875 630.943359375 c 0
 952.010742188 547.612304688 884.35546875 479.95703125 801.0234375 479.95703125 c 0xbf
 717.692382812 479.958007812 650.038085938 547.612304688 650.037109375 630.943359375 c 0
 650.037109375 714.275390625 717.69140625 781.930664062 801.0234375 781.931640625 c 0
801.0234375 752.25 m 0
 734.072265625 752.25 679.716796875 697.89453125 679.716796875 630.943359375 c 0
 679.716796875 563.993164062 734.072265625 509.63671875 801.0234375 509.63671875 c 0
 867.974609375 509.63671875 922.330078125 563.993164062 922.330078125 630.943359375 c 0
 922.330078125 697.89453125 867.974609375 752.25 801.0234375 752.25 c 0
439.150390625 435.4453125 m 1xdf
 439.150390625 612.473632812 l 1
 616.1796875 612.473632812 l 1
 616.1796875 435.4453125 l 1
 439.150390625 435.4453125 l 1xdf
130 784.513671875 m 1
 194.19921875 784.513671875 l 1
 215.171875 784.513671875 l 1
 653.615234375 784.513671875 l 1
 653.615234375 755.969726562 l 1
 228.41015625 755.969726562 l 1
 660.48046875 -175.615234375 l 1
 601.767578125 -175.615234375 l 1
 575.30859375 -175.615234375 l 1
 142.349609375 -175.615234375 l 1
 142.349609375 -147.071289062 l 1
 562.0703125 -147.071289062 l 1
 130 784.513671875 l 1
EndSplineSet
Validated: 524289
EndChar

StartChar: uni305A
Encoding: 12378 12378 50
Width: 1183
Flags: W
HStem: -175.615 28.5439<142.35 562.07> 46.084 37.4238<634.031 1026.34> 524.625 177.029<876.412 1026.34> 664.23 37.4238<634.031 876.412> 755.97 28.5439<228.41 653.615>
VStem: 606.93 27.1016<83.5078 664.23> 876.412 177.029<524.625 664.23> 1026.34 27.0996<83.5078 524.625>
LayerCount: 2
Fore
SplineSet
606.9296875 701.654296875 m 1xdd
 876.412109375 701.654296875 l 1xee
 1053.44140625 701.654296875 l 1xdd
 1053.44140625 524.625 l 1xee
 1053.44140625 46.083984375 l 1
 606.9296875 46.083984375 l 1
 606.9296875 701.654296875 l 1xdd
634.03125 664.23046875 m 1xde
 634.03125 83.5078125 l 1
 1026.34179688 83.5078125 l 1
 1026.34179688 524.625 l 1xed
 876.412109375 524.625 l 1xee
 876.412109375 664.23046875 l 1
 634.03125 664.23046875 l 1xde
130 784.513671875 m 1
 194.19921875 784.513671875 l 1
 215.171875 784.513671875 l 1
 653.615234375 784.513671875 l 1
 653.615234375 755.969726562 l 1
 228.41015625 755.969726562 l 1
 660.48046875 -175.615234375 l 1
 601.767578125 -175.615234375 l 1
 575.30859375 -175.615234375 l 1
 142.349609375 -175.615234375 l 1
 142.349609375 -147.071289062 l 1
 562.0703125 -147.071289062 l 1
 130 784.513671875 l 1
EndSplineSet
Validated: 524289
EndChar

StartChar: uni305C
Encoding: 12380 12380 51
Width: 1302
Flags: W
HStem: -175.615 28.5439<142.35 562.07> 607.486 177.027<995.756 1151.62> 755.97 28.5439<228.41 653.615> 763.346 21.168<724.92 995.756>
VStem: 995.756 177.029<607.486 763.346> 1151.62 21.168<-69.9961 607.486>
LayerCount: 2
Fore
SplineSet
691.49609375 784.513671875 m 1x94
 995.755859375 784.513671875 l 1xc8
 1172.78515625 784.513671875 l 1x94
 1172.78515625 607.486328125 l 1xc8
 1172.78515625 -147.982421875 l 1
 691.49609375 784.513671875 l 1x94
724.919921875 763.345703125 m 1x98
 1151.6171875 -69.99609375 l 1
 1151.6171875 607.486328125 l 1xc4
 995.755859375 607.486328125 l 1xc8
 995.755859375 763.345703125 l 1
 724.919921875 763.345703125 l 1x98
130 784.513671875 m 1x90
 194.19921875 784.513671875 l 1
 215.171875 784.513671875 l 1x90
 653.615234375 784.513671875 l 1
 653.615234375 755.969726562 l 1
 228.41015625 755.969726562 l 1xa0
 660.48046875 -175.615234375 l 1
 601.767578125 -175.615234375 l 1
 575.30859375 -175.615234375 l 1
 142.349609375 -175.615234375 l 1
 142.349609375 -147.071289062 l 1
 562.0703125 -147.071289062 l 1
 130 784.513671875 l 1x90
EndSplineSet
Validated: 524289
EndChar

StartChar: uni305E
Encoding: 12382 12382 52
Width: 1105
Flags: W
HStem: -175.615 28.5439<142.35 562.07> 161.904 33.5527<675.315 830.084> 541.747 177.028<362.274 539.303> 574.861 33.5527<675.316 830.084> 755.97 28.5439<228.41 653.615>
VStem: 362.274 177.028<541.747 718.775> 529.445 33.5527<307.776 462.544> 942.402 33.5527<307.776 462.544>
LayerCount: 2
Fore
SplineSet
752.69921875 608.4140625 m 0xdb
 875.916992188 608.4140625 975.954101562 508.377929688 975.955078125 385.16015625 c 0
 975.955078125 261.942382812 875.916992188 161.904296875 752.69921875 161.904296875 c 0
 629.481445312 161.905273438 529.4453125 261.942382812 529.4453125 385.16015625 c 0
 529.446289062 508.376953125 629.482421875 608.413085938 752.69921875 608.4140625 c 0xdb
752.69921875 574.861328125 m 0
 648.000976562 574.860351562 562.999023438 489.858398438 562.998046875 385.16015625 c 0
 562.998046875 280.4609375 648 195.458007812 752.69921875 195.45703125 c 0
 857.399414062 195.45703125 942.40234375 280.459960938 942.40234375 385.16015625 c 0
 942.401367188 489.859375 857.3984375 574.861328125 752.69921875 574.861328125 c 0
362.274414062 541.747070312 m 1xed
 362.274414062 718.775390625 l 1
 539.302734375 718.775390625 l 1
 539.302734375 541.747070312 l 1
 362.274414062 541.747070312 l 1xed
130 784.513671875 m 1
 194.19921875 784.513671875 l 1
 215.171875 784.513671875 l 1
 653.615234375 784.513671875 l 1
 653.615234375 755.969726562 l 1
 228.41015625 755.969726562 l 1
 660.48046875 -175.615234375 l 1
 601.767578125 -175.615234375 l 1
 575.30859375 -175.615234375 l 1
 142.349609375 -175.615234375 l 1
 142.349609375 -147.071289062 l 1
 562.0703125 -147.071289062 l 1
 130 784.513671875 l 1
EndSplineSet
Validated: 524289
EndChar

StartChar: uni3060
Encoding: 12384 12384 53
Width: 1086
Flags: W
HStem: -175.615 21.168<508.92 935.617> 245.087 116.145<332.423 600.846> 607.486 177.027<779.756 879.678 899.055 935.617>
VStem: 130 118.726<-175.615 784.514> 779.756 177.029<607.486 784.514> 935.617 21.168<-154.447 607.486>
LayerCount: 2
Fore
SplineSet
779.755859375 784.513671875 m 1xf8
 956.78515625 784.513671875 l 1
 956.78515625 756.880859375 l 1
 956.78515625 607.486328125 l 1xf8
 956.78515625 -175.615234375 l 1xf4
 475.49609375 -175.615234375 l 1
 879.677734375 607.486328125 l 1
 779.755859375 607.486328125 l 1
 779.755859375 784.513671875 l 1xf8
899.0546875 607.486328125 m 1
 508.919921875 -154.447265625 l 1
 935.6171875 -154.447265625 l 1
 935.6171875 607.486328125 l 1xf4
 899.0546875 607.486328125 l 1
130 -175.615234375 m 1
 130 784.513671875 l 1
 248.725585938 784.513671875 l 1
 248.725585938 -175.615234375 l 1
 130 -175.615234375 l 1
332.422851562 245.086914062 m 1
 332.422851562 361.231445312 l 1
 600.845703125 361.231445312 l 1
 600.845703125 245.086914062 l 1
 332.422851562 245.086914062 l 1
EndSplineSet
Validated: 524289
EndChar

StartChar: uni3062
Encoding: 12386 12386 54
Width: 1036
Flags: W
HStem: 245.087 116.145<336.423 604.846> 479.957 29.6797<698.453 811.595> 503.371 177.028<336.423 513.451> 752.25 29.6816<698.452 811.595>
VStem: 130 118.726<-175.615 784.514> 336.423 177.028<503.371 680.399> 604.037 29.6797<574.373 687.515> 694.371 121.307<-175.615 438.661> 876.33 29.6816<574.373 687.515>
LayerCount: 2
Fore
SplineSet
694.37109375 -175.615234375 m 1x9f80
 694.37109375 438.661132812 l 1
 815.677734375 438.661132812 l 1
 815.677734375 -175.615234375 l 1
 694.37109375 -175.615234375 l 1x9f80
755.0234375 781.931640625 m 0
 838.35546875 781.931640625 906.01171875 714.276367188 906.01171875 630.943359375 c 0
 906.010742188 547.612304688 838.35546875 479.95703125 755.0234375 479.95703125 c 0xdf80
 671.692382812 479.958007812 604.038085938 547.612304688 604.037109375 630.943359375 c 0
 604.037109375 714.275390625 671.69140625 781.930664062 755.0234375 781.931640625 c 0
755.0234375 752.25 m 0
 688.072265625 752.25 633.716796875 697.89453125 633.716796875 630.943359375 c 0
 633.716796875 563.993164062 688.072265625 509.63671875 755.0234375 509.63671875 c 0
 821.974609375 509.63671875 876.330078125 563.993164062 876.330078125 630.943359375 c 0
 876.330078125 697.89453125 821.974609375 752.25 755.0234375 752.25 c 0
336.422851562 503.37109375 m 1xbf80
 336.422851562 680.399414062 l 1
 513.451171875 680.399414062 l 1
 513.451171875 503.37109375 l 1
 336.422851562 503.37109375 l 1xbf80
130 -175.615234375 m 1
 130 784.513671875 l 1
 248.725585938 784.513671875 l 1
 248.725585938 -175.615234375 l 1
 130 -175.615234375 l 1
336.422851562 245.086914062 m 1
 336.422851562 361.231445312 l 1
 604.845703125 361.231445312 l 1
 604.845703125 245.086914062 l 1
 336.422851562 245.086914062 l 1
EndSplineSet
Validated: 524289
EndChar

StartChar: uni3065
Encoding: 12389 12389 55
Width: 1219
Flags: W
HStem: -25.916 37.4238<670.031 1062.34> 245.087 116.145<312.423 580.846> 452.625 177.029<912.412 1062.34> 592.23 37.4238<670.031 912.412>
VStem: 130 118.726<-175.615 784.514> 642.93 27.1016<11.5078 592.23> 912.412 177.029<452.625 592.23> 1062.34 27.0996<11.5078 452.625>
LayerCount: 2
Fore
SplineSet
642.9296875 629.654296875 m 1xdd
 912.412109375 629.654296875 l 1xee
 1089.44140625 629.654296875 l 1xdd
 1089.44140625 452.625 l 1xee
 1089.44140625 -25.916015625 l 1
 642.9296875 -25.916015625 l 1
 642.9296875 629.654296875 l 1xdd
670.03125 592.23046875 m 1xde
 670.03125 11.5078125 l 1
 1062.34179688 11.5078125 l 1
 1062.34179688 452.625 l 1xed
 912.412109375 452.625 l 1xee
 912.412109375 592.23046875 l 1
 670.03125 592.23046875 l 1xde
130 -175.615234375 m 1
 130 784.513671875 l 1
 248.725585938 784.513671875 l 1
 248.725585938 -175.615234375 l 1
 130 -175.615234375 l 1
312.422851562 245.086914062 m 1
 312.422851562 361.231445312 l 1
 580.845703125 361.231445312 l 1
 580.845703125 245.086914062 l 1
 312.422851562 245.086914062 l 1
EndSplineSet
Validated: 524289
EndChar

StartChar: uni3067
Encoding: 12391 12391 56
Width: 1086
Flags: W
HStem: 245.087 116.145<338.423 606.846> 607.486 177.027<779.756 935.617> 763.346 21.168<508.92 779.756>
VStem: 130 118.726<-175.615 784.514> 779.756 177.029<607.486 763.346> 935.617 21.168<-69.9961 607.486>
LayerCount: 2
Fore
SplineSet
475.49609375 784.513671875 m 1xb4
 779.755859375 784.513671875 l 1xd8
 956.78515625 784.513671875 l 1xb4
 956.78515625 607.486328125 l 1xd8
 956.78515625 -147.982421875 l 1
 475.49609375 784.513671875 l 1xb4
508.919921875 763.345703125 m 1xb8
 935.6171875 -69.99609375 l 1
 935.6171875 607.486328125 l 1xd4
 779.755859375 607.486328125 l 1xd8
 779.755859375 763.345703125 l 1
 508.919921875 763.345703125 l 1xb8
130 -175.615234375 m 1
 130 784.513671875 l 1
 248.725585938 784.513671875 l 1xb0
 248.725585938 -175.615234375 l 1
 130 -175.615234375 l 1
338.422851562 245.086914062 m 1
 338.422851562 361.231445312 l 1
 606.845703125 361.231445312 l 1
 606.845703125 245.086914062 l 1
 338.422851562 245.086914062 l 1
EndSplineSet
Validated: 524289
EndChar

StartChar: uni3069
Encoding: 12393 12393 57
Width: 1225
Flags: W
HStem: 79.9043 33.5527<795.315 950.084> 245.087 116.145<320.423 588.846> 483.772 177.028<320.423 497.451> 492.861 33.5527<795.316 950.084>
VStem: 130 118.726<-175.615 784.514> 320.423 177.028<483.772 660.801> 649.445 33.5527<225.776 380.544> 1062.4 33.5527<225.776 380.544>
LayerCount: 2
Fore
SplineSet
872.69921875 526.4140625 m 0xdf
 995.916992188 526.4140625 1095.95410156 426.377929688 1095.95507812 303.16015625 c 0
 1095.95507812 179.942382812 995.916992188 79.904296875 872.69921875 79.904296875 c 0
 749.481445312 79.9052734375 649.4453125 179.942382812 649.4453125 303.16015625 c 0
 649.446289062 426.376953125 749.482421875 526.413085938 872.69921875 526.4140625 c 0xdf
872.69921875 492.861328125 m 0
 768.000976562 492.860351562 682.999023438 407.858398438 682.998046875 303.16015625 c 0
 682.998046875 198.4609375 768 113.458007812 872.69921875 113.45703125 c 0
 977.399414062 113.45703125 1062.40234375 198.459960938 1062.40234375 303.16015625 c 0
 1062.40136719 407.859375 977.3984375 492.861328125 872.69921875 492.861328125 c 0
130 -175.615234375 m 1
 130 784.513671875 l 1
 248.725585938 784.513671875 l 1
 248.725585938 -175.615234375 l 1
 130 -175.615234375 l 1
320.422851562 245.086914062 m 1
 320.422851562 361.231445312 l 1
 588.845703125 361.231445312 l 1
 588.845703125 245.086914062 l 1
 320.422851562 245.086914062 l 1
320.422851562 483.772460938 m 1xef
 320.422851562 660.80078125 l 1
 497.451171875 660.80078125 l 1
 497.451171875 483.772460938 l 1
 320.422851562 483.772460938 l 1xef
EndSplineSet
Validated: 524289
EndChar

StartChar: uni3070
Encoding: 12400 12400 58
Width: 1392
Flags: W
HStem: -175.615 28.3906<248.727 749.566> -175.615 21.168<814.92 1241.62> 607.484 177.029<1085.76 1185.68 1205.05 1241.62>
VStem: 130 118.727<-147.225 784.514> 1085.76 177.029<607.484 784.514> 1241.62 21.168<-154.447 607.484>
LayerCount: 2
Fore
SplineSet
1085.75585938 784.513671875 m 1x78
 1262.78515625 784.513671875 l 1
 1262.78515625 756.880859375 l 1
 1262.78515625 607.484375 l 1x78
 1262.78515625 -175.615234375 l 1x74
 781.49609375 -175.615234375 l 1
 1185.67773438 607.484375 l 1
 1085.75585938 607.484375 l 1
 1085.75585938 784.513671875 l 1x78
1205.05273438 607.484375 m 1
 814.919921875 -154.447265625 l 1
 1241.6171875 -154.447265625 l 1
 1241.6171875 607.484375 l 1x74
 1205.05273438 607.484375 l 1
130 784.513671875 m 1
 248.7265625 784.513671875 l 1
 248.7265625 -147.224609375 l 1
 749.56640625 -147.224609375 l 1
 749.56640625 -175.615234375 l 1
 248.7265625 -175.615234375 l 1xb0
 180.40625 -175.615234375 l 1
 130 -175.615234375 l 1
 130 784.513671875 l 1
EndSplineSet
Validated: 524289
EndChar

StartChar: uni3073
Encoding: 12403 12403 59
Width: 1132
Flags: W
HStem: -175.615 28.3906<248.727 749.566> 302.669 177.028<433.724 610.753> 479.957 29.6797<794.453 907.595> 752.25 29.6816<794.452 907.595>
VStem: 130 118.727<-147.225 784.514> 433.724 177.029<302.669 479.697> 700.037 29.6797<574.373 687.515> 790.371 121.307<-175.615 438.661> 972.33 29.6816<574.373 687.515>
LayerCount: 2
Fore
SplineSet
790.37109375 -175.615234375 m 1
 790.37109375 438.661132812 l 1
 911.677734375 438.661132812 l 1
 911.677734375 -175.615234375 l 1
 790.37109375 -175.615234375 l 1
851.0234375 781.931640625 m 0
 934.35546875 781.931640625 1002.01171875 714.276367188 1002.01171875 630.943359375 c 0
 1002.01074219 547.612304688 934.35546875 479.95703125 851.0234375 479.95703125 c 0
 767.692382812 479.958007812 700.038085938 547.612304688 700.037109375 630.943359375 c 0
 700.037109375 714.275390625 767.69140625 781.930664062 851.0234375 781.931640625 c 0
851.0234375 752.25 m 0
 784.072265625 752.25 729.716796875 697.89453125 729.716796875 630.943359375 c 0
 729.716796875 563.993164062 784.072265625 509.63671875 851.0234375 509.63671875 c 0
 917.974609375 509.63671875 972.330078125 563.993164062 972.330078125 630.943359375 c 0
 972.330078125 697.89453125 917.974609375 752.25 851.0234375 752.25 c 0
433.723632812 302.668945312 m 1
 433.723632812 479.697265625 l 1
 610.752929688 479.697265625 l 1
 610.752929688 302.668945312 l 1
 433.723632812 302.668945312 l 1
130 784.513671875 m 1
 248.7265625 784.513671875 l 1
 248.7265625 -147.224609375 l 1
 749.56640625 -147.224609375 l 1
 749.56640625 -175.615234375 l 1
 248.7265625 -175.615234375 l 1
 180.40625 -175.615234375 l 1
 130 -175.615234375 l 1
 130 784.513671875 l 1
EndSplineSet
Validated: 524289
EndChar

StartChar: uni3076
Encoding: 12406 12406 60
Width: 1021
Flags: W
HStem: -175.615 28.3906<248.727 749.566> 128.943 37.4238<472.031 864.342> 607.486 177.027<714.412 864.342> 747.09 37.4238<472.031 714.412>
VStem: 130 118.727<-147.225 784.514> 444.93 27.1016<166.367 747.09> 714.412 177.029<607.486 747.09> 864.342 27.0996<166.367 607.486>
LayerCount: 2
Fore
SplineSet
444.9296875 784.513671875 m 1xdd
 714.412109375 784.513671875 l 1xee
 891.44140625 784.513671875 l 1xdd
 891.44140625 607.486328125 l 1xee
 891.44140625 128.943359375 l 1
 444.9296875 128.943359375 l 1
 444.9296875 784.513671875 l 1xdd
472.03125 747.08984375 m 1xde
 472.03125 166.3671875 l 1
 864.341796875 166.3671875 l 1
 864.341796875 607.486328125 l 1xed
 714.412109375 607.486328125 l 1xee
 714.412109375 747.08984375 l 1
 472.03125 747.08984375 l 1xde
130 784.513671875 m 1xdc
 248.7265625 784.513671875 l 1
 248.7265625 -147.224609375 l 1
 749.56640625 -147.224609375 l 1
 749.56640625 -175.615234375 l 1
 248.7265625 -175.615234375 l 1
 180.40625 -175.615234375 l 1
 130 -175.615234375 l 1
 130 784.513671875 l 1xdc
EndSplineSet
Validated: 524289
EndChar

StartChar: uni3079
Encoding: 12409 12409 61
Width: 958
Flags: W
HStem: -175.615 28.3906<248.727 749.566> 607.486 177.027<651.756 807.617> 763.346 21.168<380.92 651.756>
VStem: 130 118.727<-147.225 784.514> 651.756 177.029<607.486 763.346> 807.617 21.168<-69.9961 607.486>
LayerCount: 2
Fore
SplineSet
347.49609375 784.513671875 m 1xb4
 651.755859375 784.513671875 l 1xd8
 828.78515625 784.513671875 l 1xb4
 828.78515625 607.486328125 l 1xd8
 828.78515625 -147.982421875 l 1
 347.49609375 784.513671875 l 1xb4
380.919921875 763.345703125 m 1xb8
 807.6171875 -69.99609375 l 1
 807.6171875 607.486328125 l 1xd4
 651.755859375 607.486328125 l 1xd8
 651.755859375 763.345703125 l 1
 380.919921875 763.345703125 l 1xb8
130 784.513671875 m 1xb0
 248.7265625 784.513671875 l 1
 248.7265625 -147.224609375 l 1
 749.56640625 -147.224609375 l 1
 749.56640625 -175.615234375 l 1
 248.7265625 -175.615234375 l 1
 180.40625 -175.615234375 l 1
 130 -175.615234375 l 1
 130 784.513671875 l 1xb0
EndSplineSet
Validated: 524289
EndChar

StartChar: uni307C
Encoding: 12412 12412 62
Width: 1019
Flags: W
HStem: -175.615 28.3906<248.727 749.566> 79.9043 33.5527<589.315 744.084> 492.861 33.5527<589.316 744.084> 607.485 177.028<356.39 533.418>
VStem: 130 118.727<-147.225 784.514> 356.39 177.028<607.485 784.514> 443.445 33.5527<225.776 380.544> 856.402 33.5527<225.776 380.544>
LayerCount: 2
Fore
SplineSet
666.69921875 526.4140625 m 0xfb
 789.916992188 526.4140625 889.954101562 426.377929688 889.955078125 303.16015625 c 0
 889.955078125 179.942382812 789.916992188 79.904296875 666.69921875 79.904296875 c 0
 543.481445312 79.9052734375 443.4453125 179.942382812 443.4453125 303.16015625 c 0
 443.446289062 426.376953125 543.482421875 526.413085938 666.69921875 526.4140625 c 0xfb
666.69921875 492.861328125 m 0
 562.000976562 492.860351562 476.999023438 407.858398438 476.998046875 303.16015625 c 0
 476.998046875 198.4609375 562 113.458007812 666.69921875 113.45703125 c 0
 771.399414062 113.45703125 856.40234375 198.459960938 856.40234375 303.16015625 c 0
 856.401367188 407.859375 771.3984375 492.861328125 666.69921875 492.861328125 c 0
356.389648438 607.485351562 m 1xfd
 356.389648438 784.513671875 l 1
 533.41796875 784.513671875 l 1
 533.41796875 607.485351562 l 1
 356.389648438 607.485351562 l 1xfd
130 784.513671875 m 1
 248.7265625 784.513671875 l 1
 248.7265625 -147.224609375 l 1
 749.56640625 -147.224609375 l 1
 749.56640625 -175.615234375 l 1
 248.7265625 -175.615234375 l 1
 180.40625 -175.615234375 l 1
 130 -175.615234375 l 1
 130 784.513671875 l 1
EndSplineSet
Validated: 524289
EndChar

StartChar: uni3093
Encoding: 12435 12435 63
Width: 698
Flags: W
HStem: -175.615 28.2891<422.561 508.284> 2.32617 28.2891<422.561 508.284>
VStem: 130 118.726<-175.615 784.514> 362.308 28.2891<-115.361 -29.6383> 540.249 28.2871<-115.361 -29.6385>
LayerCount: 2
Fore
SplineSet
465.422851562 30.615234375 m 0
 522.33203125 30.615234375 568.536132812 -15.58984375 568.536132812 -72.5 c 0
 568.536132812 -129.41015625 522.33203125 -175.614257812 465.422851562 -175.615234375 c 0
 408.51171875 -175.615234375 362.307617188 -129.41015625 362.307617188 -72.5 c 0
 362.307617188 -15.5888671875 408.51171875 30.615234375 465.422851562 30.615234375 c 0
465.422851562 2.326171875 m 0
 424.125 2.326171875 390.596679688 -31.2021484375 390.596679688 -72.5 c 0
 390.596679688 -113.797851562 424.125 -147.326171875 465.422851562 -147.326171875 c 0
 506.720703125 -147.326171875 540.249023438 -113.797851562 540.249023438 -72.5 c 0
 540.249023438 -31.2021484375 506.720703125 2.326171875 465.422851562 2.326171875 c 0
130 -175.615234375 m 1
 130 784.513671875 l 1
 248.725585938 784.513671875 l 1
 248.725585938 -175.615234375 l 1
 130 -175.615234375 l 1
EndSplineSet
Validated: 524289
EndChar

StartChar: uni30FC
Encoding: 12540 12540 166
Width: 1003
HStem: 230.909 139.373<200 803.952>
LayerCount: 2
Fore
SplineSet
200 230.909179688 m 1
 200 370.282226562 l 1
 803.952148438 370.282226562 l 1
 803.952148438 230.909179688 l 1
 200 230.909179688 l 1
EndSplineSet
Validated: 524289
EndChar
